<?xml version="1.0" encoding="UTF-8"?>
<!-- Generator: visioncortex VTracer 0.6.4 -->
<svg version="1.1" xmlns="http://www.w3.org/2000/svg" width="286" height="269">
<path d="M0 0 C94.38 0 188.76 0 286 0 C286 88.77 286 177.54 286 269 C191.62 269 97.24 269 0 269 C0 180.23 0 91.46 0 0 Z " fill="#FDFDFE" transform="translate(0,0)"/>
<path d="M0 0 C1.79940362 1.57205216 3.56743623 3.18033768 5.3125 4.8125 C5.89628418 5.35535645 6.48006836 5.89821289 7.08154297 6.45751953 C15.6972926 14.54151415 23.18797818 22.6491695 29.3125 32.8125 C29.65861328 33.38403809 30.00472656 33.95557617 30.36132812 34.54443359 C41.35912574 53.00068236 46.96260443 73.84692021 46.8125 95.3125 C46.81040527 96.0057135 46.80831055 96.698927 46.80615234 97.41314697 C46.68420696 117.1180534 42.32393519 134.31649089 33.3125 151.8125 C32.8189502 152.77905518 32.8189502 152.77905518 32.31542969 153.76513672 C17.4640514 182.37958192 -9.07936136 202.14339677 -39.3203125 211.99609375 C-71.91538214 221.77461464 -104.77253384 217.22591538 -134.50878906 201.42895508 C-141.67554102 197.45252598 -148.86593059 192.63406941 -154.6875 186.8125 C-157.59612179 186.70164993 -160.48499993 186.65085256 -163.39453125 186.63671875 C-165.19597519 186.61351736 -166.99740751 186.58939989 -168.79882812 186.56445312 C-171.64957396 186.52933755 -174.49989433 186.5000005 -177.35083008 186.48657227 C-180.09509337 186.47110291 -182.83809962 186.43089491 -185.58203125 186.38671875 C-186.85878471 186.38958138 -186.85878471 186.38958138 -188.16133118 186.39250183 C-188.95863144 186.37601089 -189.7559317 186.35951996 -190.57739258 186.3425293 C-191.27608963 186.33666306 -191.97478668 186.33079681 -192.69465637 186.32475281 C-195.66755799 185.56057986 -196.78709513 184.2027992 -198.6875 181.8125 C-199.18527794 178.68935299 -199.18527794 178.68935299 -199.18197632 174.93577576 C-199.18680515 174.24435441 -199.19163398 173.55293306 -199.19660914 172.84055954 C-199.20787954 170.52409978 -199.19056281 168.20874414 -199.17333984 165.89233398 C-199.17548572 164.23160503 -199.17936344 162.57087754 -199.18484497 160.91015625 C-199.19454373 156.39985718 -199.17922904 151.88995358 -199.15893888 147.37970233 C-199.1413821 142.66321936 -199.14489268 137.94674886 -199.1456604 133.23023987 C-199.14378702 125.31040827 -199.12641714 117.39072989 -199.09912109 109.47094727 C-199.06765905 100.30844373 -199.05712525 91.14610796 -199.0585922 81.9835543 C-199.05981201 73.17572474 -199.04960867 64.36794992 -199.03300858 55.5601368 C-199.0259393 51.80860021 -199.02228157 48.057083 -199.02122116 44.30554008 C-199.0192151 39.89046188 -199.00702861 35.47552504 -198.98688889 31.06049347 C-198.98103734 29.4379138 -198.97858847 27.81531785 -198.97974396 26.19272804 C-198.98072251 23.98241428 -198.96944285 21.77249896 -198.95492554 19.5622406 C-198.95157385 18.32393714 -198.94822216 17.08563368 -198.94476891 15.80980587 C-198.6875 12.8125 -198.6875 12.8125 -196.6875 9.8125 C-193.89787053 9.5853926 -191.31599255 9.54014139 -188.53125 9.6171875 C-186.85156892 9.62416581 -185.17187943 9.62931331 -183.4921875 9.6328125 C-180.84949859 9.65332875 -178.20932439 9.68694687 -175.56738281 9.75390625 C-163.30010862 10.30674406 -163.30010862 10.30674406 -152.91796875 4.578125 C-151.49045848 3.00515974 -150.0783833 1.41794353 -148.6875 -0.1875 C-146.3948279 -2.06130167 -143.97907863 -3.69610313 -141.5 -5.3125 C-140.86763428 -5.72717529 -140.23526855 -6.14185059 -139.58374023 -6.5690918 C-97.02764946 -33.79088697 -39.90686557 -31.30065822 0 0 Z M-196.6875 12.8125 C-196.99063711 15.85518275 -196.99063711 15.85518275 -196.93473816 19.50013733 C-196.93715257 20.19534451 -196.93956699 20.8905517 -196.94205457 21.60682577 C-196.94771227 23.94769479 -196.93901305 26.28829342 -196.93041992 28.62915039 C-196.93149228 30.30267918 -196.93343028 31.97620761 -196.93617249 33.6497345 C-196.94103096 38.20329347 -196.93335297 42.75675485 -196.92321944 47.31030202 C-196.91445653 52.06644031 -196.91619604 56.82257538 -196.9165802 61.57872009 C-196.91564284 69.56592448 -196.90694873 77.55309094 -196.89331055 85.5402832 C-196.8775789 94.78796088 -196.87231258 104.03559701 -196.8730461 113.28328711 C-196.87365547 122.16371685 -196.86855871 131.04413298 -196.86025429 139.92455864 C-196.85671459 143.71123803 -196.85489006 147.49791261 -196.85436058 151.28459358 C-196.85335942 155.73898921 -196.84728153 160.19334966 -196.83719444 164.64773369 C-196.83426228 166.28728393 -196.83304551 167.92683823 -196.83362198 169.56639099 C-196.83410921 171.79491406 -196.82849142 174.02333711 -196.82121277 176.25184631 C-196.81953692 177.50196534 -196.81786108 178.75208437 -196.81613445 180.04008579 C-197.00365929 182.72086531 -197.00365929 182.72086531 -195.6875 183.8125 C-193.10307794 183.92802553 -190.54471809 183.97812063 -187.95910645 183.98658752 C-187.13972454 183.99308648 -186.32034263 183.99958543 -185.47613096 184.00628132 C-182.70870658 184.02678898 -179.94129705 184.03992925 -177.17382812 184.05297852 C-175.19815869 184.06578322 -173.22249137 184.07891853 -171.24682617 184.09236145 C-153.18453477 184.20842825 -135.12168462 184.26492077 -117.05908966 184.30912876 C-103.70371854 184.34236153 -90.34902632 184.40188739 -76.99394655 184.49663979 C-67.60873445 184.56097801 -58.22370726 184.59466714 -48.83828306 184.60587829 C-43.23119584 184.61343934 -37.62492758 184.63462483 -32.01808167 184.68890572 C-26.73846099 184.73941192 -21.46009139 184.75192778 -16.18026733 184.73565483 C-14.2456976 184.73625771 -12.31107509 184.75049498 -10.37672424 184.77960205 C1.55628364 185.27690615 1.55628364 185.27690615 11.81921387 180.01451111 C13.71021693 177.97680685 13.71021693 177.97680685 15.3125 175.8125 C16.22386845 174.71981229 16.22386845 174.71981229 17.15364838 173.60505009 C18.82738026 171.56677307 20.3579262 169.46960792 21.875 167.3125 C22.42873291 166.53132812 22.98246582 165.75015625 23.55297852 164.9453125 C38.03856563 144.05056628 44.73720092 121.43841816 44.4375 96.125 C44.42744292 94.6334696 44.41832192 93.14193258 44.41015625 91.65039062 C44.38837544 88.03762026 44.3539985 84.42510407 44.3125 80.8125 C40.04810168 82.81297922 37.55894439 85.57336731 34.41015625 89.03515625 C32.01938362 91.06085745 30.38867115 91.46475891 27.3125 91.8125 C27.3125 93.1325 27.3125 94.4525 27.3125 95.8125 C26.3225 95.4825 25.3325 95.1525 24.3125 94.8125 C23.63842161 93.14881717 22.9729954 91.48162194 22.3125 89.8125 C20.34529259 87.33645058 20.34529259 87.33645058 18 85.0625 C17.24074219 84.28390625 16.48148438 83.5053125 15.69921875 82.703125 C13.04825219 80.60317768 11.69962837 79.78084459 8.3125 79.8125 C5.73754936 81.47090337 5.73754936 81.47090337 3.5 83.9375 C2.31470703 85.11699219 2.31470703 85.11699219 1.10546875 86.3203125 C-0.91585433 89.12990755 -1.09027528 90.43399688 -0.6875 93.8125 C-1.3475 93.8125 -2.0075 93.8125 -2.6875 93.8125 C-2.6875 94.4725 -2.6875 95.1325 -2.6875 95.8125 C-4.3375 95.1525 -5.9875 94.4925 -7.6875 93.8125 C-7.5 91.4375 -7.5 91.4375 -6.6875 88.8125 C-5.02664217 88.13149082 -3.35888593 87.4672452 -1.6875 86.8125 C0.74088202 85.06633985 0.74088202 85.06633985 3 83 C3.76699219 82.33355469 4.53398437 81.66710937 5.32421875 80.98046875 C7.43295759 78.68115626 8.35139586 76.75748757 9.3125 73.8125 C10.9625 73.8125 12.6125 73.8125 14.3125 73.8125 C14.20679688 74.51761719 14.10109375 75.22273438 13.9921875 75.94921875 C14.44257929 79.97528197 16.65373311 81.92416917 19.4375 84.625 C19.911875 85.12708984 20.38625 85.62917969 20.875 86.14648438 C23.24503371 88.50050434 24.99483897 89.74293307 28.2734375 90.4609375 C34.29687036 89.17573203 38.65453889 84.30908311 42.30419922 79.54443359 C43.94581483 76.7246706 43.8169546 74.61722646 43.375 71.4375 C42.52764551 68.13592079 42.52764551 68.13592079 41.3125 64.8125 C40.74208984 63.02199219 40.74208984 63.02199219 40.16015625 61.1953125 C37.44660656 53.13268881 34.11308493 45.41366986 30.3125 37.8125 C18.4325 37.4825 6.5525 37.1525 -5.6875 36.8125 C-5.6875 33.1825 -5.6875 29.5525 -5.6875 25.8125 C3.2225 25.4825 12.1325 25.1525 21.3125 24.8125 C14.97795082 14.98163149 14.97795082 14.98163149 5.39385605 10.0686264 C3.88275409 10.04101633 2.3708298 10.04609573 0.85980225 10.07751465 C0.02304215 10.07097697 -0.81371795 10.06443929 -1.67583442 10.0577035 C-4.47245894 10.04316679 -7.26698087 10.07142482 -10.06347656 10.09960938 C-12.07094682 10.09802728 -14.07841647 10.09383169 -16.08587646 10.08721924 C-21.53205547 10.07695632 -26.97747795 10.10400758 -32.42353535 10.13827324 C-38.11874357 10.16834482 -43.81394198 10.16599706 -49.50921631 10.16760254 C-59.06910117 10.17498554 -68.62869863 10.20491288 -78.18847656 10.25 C-90.47209393 10.30781437 -102.75548026 10.32845279 -115.0392189 10.3373642 C-125.58849266 10.34531405 -136.13771589 10.37031437 -146.68695354 10.39805794 C-150.0844556 10.40626529 -153.48195585 10.41211163 -156.8794632 10.41764832 C-162.20809583 10.42741407 -167.5365874 10.44778628 -172.86515045 10.47652435 C-174.82517219 10.48559061 -176.78521293 10.49125246 -178.74525452 10.49333954 C-181.41122496 10.49681629 -184.0768391 10.51254212 -186.74273682 10.53161621 C-187.91848939 10.52901676 -187.91848939 10.52901676 -189.11799455 10.5263648 C-193.36340017 10.42375811 -193.36340017 10.42375811 -196.6875 12.8125 Z " fill="#F0F2F9" transform="translate(219.6875,37.1875)"/>
<path d="M0 0 C51.48 0 102.96 0 156 0 C142.71190868 13.28809132 125.9267424 21.04812664 108 26 C107.03682861 26.26997803 106.07365723 26.53995605 105.08129883 26.81811523 C96.64055438 28.99135697 88.6327601 29.50586835 79.9375 29.4375 C79.26290741 29.43445862 78.58831482 29.43141724 77.89328003 29.42828369 C48.89257877 29.23582103 22.23180903 19.86335311 0 1 C0 0.67 0 0.34 0 0 Z " fill="#F0F2F9" transform="translate(67,223)"/>
<path d="M0 0 C1.79940362 1.57205216 3.56743623 3.18033768 5.3125 4.8125 C5.89628418 5.35535645 6.48006836 5.89821289 7.08154297 6.45751953 C15.6972926 14.54151415 23.18797818 22.6491695 29.3125 32.8125 C29.65861328 33.38403809 30.00472656 33.95557617 30.36132812 34.54443359 C41.35912574 53.00068236 46.96260443 73.84692021 46.8125 95.3125 C46.81040527 96.0057135 46.80831055 96.698927 46.80615234 97.41314697 C46.68420696 117.1180534 42.32393519 134.31649089 33.3125 151.8125 C32.8189502 152.77905518 32.8189502 152.77905518 32.31542969 153.76513672 C17.4640514 182.37958192 -9.07936136 202.14339677 -39.3203125 211.99609375 C-71.91538214 221.77461464 -104.77253384 217.22591538 -134.50878906 201.42895508 C-141.67554102 197.45252598 -148.86593059 192.63406941 -154.6875 186.8125 C-157.59612179 186.70164993 -160.48499993 186.65085256 -163.39453125 186.63671875 C-165.19597519 186.61351736 -166.99740751 186.58939989 -168.79882812 186.56445312 C-171.64957396 186.52933755 -174.49989433 186.5000005 -177.35083008 186.48657227 C-180.09509337 186.47110291 -182.83809962 186.43089491 -185.58203125 186.38671875 C-186.85878471 186.38958138 -186.85878471 186.38958138 -188.16133118 186.39250183 C-188.95863144 186.37601089 -189.7559317 186.35951996 -190.57739258 186.3425293 C-191.27608963 186.33666306 -191.97478668 186.33079681 -192.69465637 186.32475281 C-195.66755799 185.56057986 -196.78709513 184.2027992 -198.6875 181.8125 C-199.18527794 178.68935299 -199.18527794 178.68935299 -199.18197632 174.93577576 C-199.18680515 174.24435441 -199.19163398 173.55293306 -199.19660914 172.84055954 C-199.20787954 170.52409978 -199.19056281 168.20874414 -199.17333984 165.89233398 C-199.17548572 164.23160503 -199.17936344 162.57087754 -199.18484497 160.91015625 C-199.19454373 156.39985718 -199.17922904 151.88995358 -199.15893888 147.37970233 C-199.1413821 142.66321936 -199.14489268 137.94674886 -199.1456604 133.23023987 C-199.14378702 125.31040827 -199.12641714 117.39072989 -199.09912109 109.47094727 C-199.06765905 100.30844373 -199.05712525 91.14610796 -199.0585922 81.9835543 C-199.05981201 73.17572474 -199.04960867 64.36794992 -199.03300858 55.5601368 C-199.0259393 51.80860021 -199.02228157 48.057083 -199.02122116 44.30554008 C-199.0192151 39.89046188 -199.00702861 35.47552504 -198.98688889 31.06049347 C-198.98103734 29.4379138 -198.97858847 27.81531785 -198.97974396 26.19272804 C-198.98072251 23.98241428 -198.96944285 21.77249896 -198.95492554 19.5622406 C-198.95157385 18.32393714 -198.94822216 17.08563368 -198.94476891 15.80980587 C-198.6875 12.8125 -198.6875 12.8125 -196.6875 9.8125 C-193.89787053 9.5853926 -191.31599255 9.54014139 -188.53125 9.6171875 C-186.85156892 9.62416581 -185.17187943 9.62931331 -183.4921875 9.6328125 C-180.84949859 9.65332875 -178.20932439 9.68694687 -175.56738281 9.75390625 C-163.30010862 10.30674406 -163.30010862 10.30674406 -152.91796875 4.578125 C-151.49045848 3.00515974 -150.0783833 1.41794353 -148.6875 -0.1875 C-146.3948279 -2.06130167 -143.97907863 -3.69610313 -141.5 -5.3125 C-140.86763428 -5.72717529 -140.23526855 -6.14185059 -139.58374023 -6.5690918 C-97.02764946 -33.79088697 -39.90686557 -31.30065822 0 0 Z M-106.6875 -19.1875 C-107.36393555 -19.00026367 -108.04037109 -18.81302734 -108.73730469 -18.62011719 C-126.63292143 -13.49316909 -141.74323177 -4.32573349 -155.6875 7.8125 C-155.6875 8.1425 -155.6875 8.4725 -155.6875 8.8125 C-102.2275 8.8125 -48.7675 8.8125 6.3125 8.8125 C-12.70376818 -10.20376818 -38.62238197 -22.12366877 -65.6875 -23.1875 C-66.4520752 -23.22004883 -67.21665039 -23.25259766 -68.00439453 -23.28613281 C-81.43920781 -23.78699763 -93.72150204 -22.7823244 -106.6875 -19.1875 Z M-196.6875 12.8125 C-196.99063711 15.85518275 -196.99063711 15.85518275 -196.93473816 19.50013733 C-196.93715257 20.19534451 -196.93956699 20.8905517 -196.94205457 21.60682577 C-196.94771227 23.94769479 -196.93901305 26.28829342 -196.93041992 28.62915039 C-196.93149228 30.30267918 -196.93343028 31.97620761 -196.93617249 33.6497345 C-196.94103096 38.20329347 -196.93335297 42.75675485 -196.92321944 47.31030202 C-196.91445653 52.06644031 -196.91619604 56.82257538 -196.9165802 61.57872009 C-196.91564284 69.56592448 -196.90694873 77.55309094 -196.89331055 85.5402832 C-196.8775789 94.78796088 -196.87231258 104.03559701 -196.8730461 113.28328711 C-196.87365547 122.16371685 -196.86855871 131.04413298 -196.86025429 139.92455864 C-196.85671459 143.71123803 -196.85489006 147.49791261 -196.85436058 151.28459358 C-196.85335942 155.73898921 -196.84728153 160.19334966 -196.83719444 164.64773369 C-196.83426228 166.28728393 -196.83304551 167.92683823 -196.83362198 169.56639099 C-196.83410921 171.79491406 -196.82849142 174.02333711 -196.82121277 176.25184631 C-196.81953692 177.50196534 -196.81786108 178.75208437 -196.81613445 180.04008579 C-197.00365929 182.72086531 -197.00365929 182.72086531 -195.6875 183.8125 C-193.10307794 183.92802553 -190.54471809 183.97812063 -187.95910645 183.98658752 C-187.13972454 183.99308648 -186.32034263 183.99958543 -185.47613096 184.00628132 C-182.70870658 184.02678898 -179.94129705 184.03992925 -177.17382812 184.05297852 C-175.19815869 184.06578322 -173.22249137 184.07891853 -171.24682617 184.09236145 C-153.18453477 184.20842825 -135.12168462 184.26492077 -117.05908966 184.30912876 C-103.70371854 184.34236153 -90.34902632 184.40188739 -76.99394655 184.49663979 C-67.60873445 184.56097801 -58.22370726 184.59466714 -48.83828306 184.60587829 C-43.23119584 184.61343934 -37.62492758 184.63462483 -32.01808167 184.68890572 C-26.73846099 184.73941192 -21.46009139 184.75192778 -16.18026733 184.73565483 C-14.2456976 184.73625771 -12.31107509 184.75049498 -10.37672424 184.77960205 C1.55628364 185.27690615 1.55628364 185.27690615 11.81921387 180.01451111 C13.71021693 177.97680685 13.71021693 177.97680685 15.3125 175.8125 C16.22386845 174.71981229 16.22386845 174.71981229 17.15364838 173.60505009 C18.82738026 171.56677307 20.3579262 169.46960792 21.875 167.3125 C22.42873291 166.53132812 22.98246582 165.75015625 23.55297852 164.9453125 C38.03856563 144.05056628 44.73720092 121.43841816 44.4375 96.125 C44.42744292 94.6334696 44.41832192 93.14193258 44.41015625 91.65039062 C44.38837544 88.03762026 44.3539985 84.42510407 44.3125 80.8125 C40.04810168 82.81297922 37.55894439 85.57336731 34.41015625 89.03515625 C32.01938362 91.06085745 30.38867115 91.46475891 27.3125 91.8125 C27.3125 93.1325 27.3125 94.4525 27.3125 95.8125 C26.3225 95.4825 25.3325 95.1525 24.3125 94.8125 C23.63842161 93.14881717 22.9729954 91.48162194 22.3125 89.8125 C20.34529259 87.33645058 20.34529259 87.33645058 18 85.0625 C17.24074219 84.28390625 16.48148438 83.5053125 15.69921875 82.703125 C13.04825219 80.60317768 11.69962837 79.78084459 8.3125 79.8125 C5.73754936 81.47090337 5.73754936 81.47090337 3.5 83.9375 C2.31470703 85.11699219 2.31470703 85.11699219 1.10546875 86.3203125 C-0.91585433 89.12990755 -1.09027528 90.43399688 -0.6875 93.8125 C-1.3475 93.8125 -2.0075 93.8125 -2.6875 93.8125 C-2.6875 94.4725 -2.6875 95.1325 -2.6875 95.8125 C-4.3375 95.1525 -5.9875 94.4925 -7.6875 93.8125 C-7.5 91.4375 -7.5 91.4375 -6.6875 88.8125 C-5.02664217 88.13149082 -3.35888593 87.4672452 -1.6875 86.8125 C0.74088202 85.06633985 0.74088202 85.06633985 3 83 C3.76699219 82.33355469 4.53398437 81.66710937 5.32421875 80.98046875 C7.43295759 78.68115626 8.35139586 76.75748757 9.3125 73.8125 C10.9625 73.8125 12.6125 73.8125 14.3125 73.8125 C14.20679688 74.51761719 14.10109375 75.22273438 13.9921875 75.94921875 C14.44257929 79.97528197 16.65373311 81.92416917 19.4375 84.625 C19.911875 85.12708984 20.38625 85.62917969 20.875 86.14648438 C23.24503371 88.50050434 24.99483897 89.74293307 28.2734375 90.4609375 C34.29687036 89.17573203 38.65453889 84.30908311 42.30419922 79.54443359 C43.94581483 76.7246706 43.8169546 74.61722646 43.375 71.4375 C42.52764551 68.13592079 42.52764551 68.13592079 41.3125 64.8125 C40.74208984 63.02199219 40.74208984 63.02199219 40.16015625 61.1953125 C37.44660656 53.13268881 34.11308493 45.41366986 30.3125 37.8125 C18.4325 37.4825 6.5525 37.1525 -5.6875 36.8125 C-5.6875 33.1825 -5.6875 29.5525 -5.6875 25.8125 C3.2225 25.4825 12.1325 25.1525 21.3125 24.8125 C14.97795082 14.98163149 14.97795082 14.98163149 5.39385605 10.0686264 C3.88275409 10.04101633 2.3708298 10.04609573 0.85980225 10.07751465 C0.02304215 10.07097697 -0.81371795 10.06443929 -1.67583442 10.0577035 C-4.47245894 10.04316679 -7.26698087 10.07142482 -10.06347656 10.09960938 C-12.07094682 10.09802728 -14.07841647 10.09383169 -16.08587646 10.08721924 C-21.53205547 10.07695632 -26.97747795 10.10400758 -32.42353535 10.13827324 C-38.11874357 10.16834482 -43.81394198 10.16599706 -49.50921631 10.16760254 C-59.06910117 10.17498554 -68.62869863 10.20491288 -78.18847656 10.25 C-90.47209393 10.30781437 -102.75548026 10.32845279 -115.0392189 10.3373642 C-125.58849266 10.34531405 -136.13771589 10.37031437 -146.68695354 10.39805794 C-150.0844556 10.40626529 -153.48195585 10.41211163 -156.8794632 10.41764832 C-162.20809583 10.42741407 -167.5365874 10.44778628 -172.86515045 10.47652435 C-174.82517219 10.48559061 -176.78521293 10.49125246 -178.74525452 10.49333954 C-181.41122496 10.49681629 -184.0768391 10.51254212 -186.74273682 10.53161621 C-187.91848939 10.52901676 -187.91848939 10.52901676 -189.11799455 10.5263648 C-193.36340017 10.42375811 -193.36340017 10.42375811 -196.6875 12.8125 Z M-152.6875 185.8125 C-131.21511208 207.28488792 -101.24165386 215.2065366 -71.63671875 215.25323486 C-59.75102213 215.22630458 -48.93900619 213.74582598 -37.6875 209.8125 C-37.01912109 209.58788086 -36.35074219 209.36326172 -35.66210938 209.13183594 C-21.6774406 204.34247031 -7.49908842 197.00034294 3.3125 186.8125 C3.3125 186.4825 3.3125 186.1525 3.3125 185.8125 C-48.1675 185.8125 -99.6475 185.8125 -152.6875 185.8125 Z " fill="#DBDFE9" transform="translate(219.6875,37.1875)"/>
<path d="M0 0 C11.49122807 1.14912281 11.49122807 1.14912281 15 4 C15.99 5.485 15.99 5.485 17 7 C19.33010909 7.67784992 21.66359824 8.34416793 24 9 C25.9375 10.375 25.9375 10.375 27 12 C27 13.32 27 14.64 27 16 C28.98 16.33 30.96 16.66 33 17 C32.98839844 16.07316406 32.97679687 15.14632812 32.96484375 14.19140625 C32.95582031 12.99386719 32.94679687 11.79632813 32.9375 10.5625 C32.92589844 9.36753906 32.91429687 8.17257813 32.90234375 6.94140625 C33 4 33 4 34 3 C36.43660446 2.89917236 38.84424701 2.86027397 41.28125 2.8671875 C42.00993286 2.86623077 42.73861572 2.86527405 43.48937988 2.86428833 C45.0327971 2.86360665 46.57621717 2.86546012 48.11962891 2.86962891 C50.489974 2.87497738 52.86012959 2.86968358 55.23046875 2.86328125 C56.72656292 2.86394203 58.22265697 2.8652232 59.71875 2.8671875 C60.43228638 2.86516327 61.14582275 2.86313904 61.88098145 2.86105347 C66.88504809 2.88504809 66.88504809 2.88504809 68 4 C68.12537741 6.14307896 68.17574364 8.29078886 68.1875 10.4375 C68.20167969 11.61183594 68.21585937 12.78617188 68.23046875 13.99609375 C68 17 68 17 66 19 C63.56982422 19.31884766 63.56982422 19.31884766 60.5546875 19.4140625 C59.47832031 19.45273438 58.40195313 19.49140625 57.29296875 19.53125 C55.60107422 19.57765625 55.60107422 19.57765625 53.875 19.625 C52.73933594 19.66367188 51.60367188 19.70234375 50.43359375 19.7421875 C47.62256044 19.83667601 44.81153767 19.92223541 42 20 C43.49121632 21.49121632 45.05558233 21.32335607 47.125 21.625 C52.00861702 22.63113346 54.14429305 24.75720971 57.37890625 28.41015625 C59.0257536 30.27199926 59.0257536 30.27199926 62.125 30.9375 C65.95288503 32.35215316 66.9790252 34.41798068 69.01953125 37.83203125 C70 40 70 40 71 45 C47.57 44.67 24.14 44.34 0 44 C0 29.48 0 14.96 0 0 Z " fill="#F0F2F9" transform="translate(34,98)"/>
<path d="M0 0 C25.74192749 2.88571926 49.45695204 22.4942008 65.41650391 41.70507812 C68.21359508 45.31016965 70.64684106 49.09505318 73 53 C73.34611328 53.57153809 73.69222656 54.14307617 74.04882812 54.73193359 C80.82910472 66.11043644 87.07147016 79.62917037 88 93 C87.34 93.66 86.68 94.32 86 95 C85.76925781 93.92363281 85.53851563 92.84726563 85.30078125 91.73828125 C81.92012691 76.42506139 81.92012691 76.42506139 75.34765625 62.265625 C74 60 74 60 74 58 C72.37203491 58.00785522 72.37203491 58.00785522 70.71118164 58.01586914 C66.69882018 58.03391836 62.68646233 58.04543171 58.67407227 58.05493164 C56.93480832 58.05997204 55.19554864 58.0668043 53.45629883 58.07543945 C50.96174063 58.08751792 48.46723827 58.09323108 45.97265625 58.09765625 C45.19036148 58.10281754 44.40806671 58.10797882 43.60206604 58.11329651 C41.73432886 58.11349226 39.86670796 58.06199694 38 58 C37 57 37 57 36.8671875 54.53125 C36.86976563 53.5309375 36.87234375 52.530625 36.875 51.5 C36.87242187 50.4996875 36.86984375 49.499375 36.8671875 48.46875 C37 46 37 46 38 45 C39.92478813 44.84193469 41.8549921 44.748865 43.78515625 44.68359375 C45.53989258 44.62075195 45.53989258 44.62075195 47.33007812 44.55664062 C48.56177734 44.51732422 49.79347656 44.47800781 51.0625 44.4375 C52.91584961 44.37272461 52.91584961 44.37272461 54.80664062 44.30664062 C57.87097335 44.20015802 60.93539073 44.09814576 64 44 C62.26009069 42.01110367 60.50914325 40.03426235 58.75 38.0625 C58.25886719 37.49853516 57.76773438 36.93457031 57.26171875 36.35351562 C54.59303799 33.38238438 52.95239439 31.59952313 49 31 C46.79130634 30.89866044 44.57982027 30.85376064 42.36883545 30.84178162 C41.70388227 30.83684364 41.03892909 30.83190566 40.35382581 30.82681805 C38.12748791 30.81146981 35.90117879 30.80308971 33.67480469 30.79467773 C32.07817329 30.78509711 30.48154443 30.77508691 28.88491821 30.76467896 C24.55059873 30.73764385 20.21626838 30.71662672 15.88191128 30.69667697 C11.35218258 30.67480884 6.82248734 30.64742419 2.29278564 30.62062073 C-6.28481011 30.57070505 -14.86242446 30.52576203 -23.44005656 30.48259836 C-33.20540278 30.43321639 -42.97071541 30.37830181 -52.73602915 30.32291877 C-72.82398815 30.20911599 -92.91197921 30.10227322 -113 30 C-113 29.67 -113 29.34 -113 29 C-59.54 28.67 -6.08 28.34 49 28 C32.65182815 15.15500784 19.05728219 7.78707674 0 1 C0 0.67 0 0.34 0 0 Z " fill="#DDE1EA" transform="translate(176,17)"/>
<path d="M0 0 C23.43 0 46.86 0 71 0 C71 2.97 71 5.94 71 9 C47.57 9 24.14 9 0 9 C0 6.03 0 3.06 0 0 Z " fill="#F0F2F9" transform="translate(122,199)"/>
<path d="M0 0 C23.43 0 46.86 0 71 0 C71 2.97 71 5.94 71 9 C47.57 9 24.14 9 0 9 C0 6.03 0 3.06 0 0 Z " fill="#EEF0F8" transform="translate(122,163)"/>
<path d="M0 0 C0.71353638 0.00202423 1.42707275 0.00404846 2.16223145 0.00613403 C2.89091431 0.00517731 3.61959717 0.00422058 4.37036133 0.00323486 C5.91377855 0.00255318 7.45719861 0.00440666 9.00061035 0.00857544 C11.37095544 0.01392391 13.74111104 0.00863011 16.1114502 0.00222778 C17.60754437 0.00288857 19.10363842 0.00416973 20.59973145 0.00613403 C21.31326782 0.0041098 22.0268042 0.00208557 22.76196289 0 C27.76602953 0.02399462 27.76602953 0.02399462 28.88098145 1.13894653 C28.97991084 3.3037545 29.01069245 5.47188438 29.00598145 7.63894653 C29.00984863 9.41785278 29.00984863 9.41785278 29.01379395 11.23269653 C28.88098145 14.13894653 28.88098145 14.13894653 27.88098145 15.13894653 C25.36004068 15.22742396 22.86667252 15.25421955 20.3458252 15.23660278 C19.21594933 15.23448036 19.21594933 15.23448036 18.06324768 15.23231506 C15.64828585 15.22670029 13.23341544 15.21414536 10.81848145 15.20144653 C9.18501924 15.19643343 7.55155558 15.1918702 5.91809082 15.18777466 C1.9056856 15.17672607 -2.10665096 15.1594516 -6.11901855 15.13894653 C-6.14587267 12.82650861 -6.16534697 10.51398383 -6.18151855 8.20144653 C-6.19312012 6.9136731 -6.20472168 5.62589966 -6.2166748 4.29910278 C-6.06047035 -0.75567323 -4.60455853 0.02207897 0 0 Z " fill="#B5BCCC" transform="translate(73.1190185546875,100.86105346679688)"/>
<path d="M0 0 C10.82731504 0.60969347 10.82731504 0.60969347 15 4 C15.99 5.485 15.99 5.485 17 7 C19.33010909 7.67784992 21.66359824 8.34416793 24 9 C25.9375 10.375 25.9375 10.375 27 12 C27 13.32 27 14.64 27 16 C31.60892817 16.8810264 36.12487153 17.20319865 40.8046875 17.31640625 C41.5286673 17.33718735 42.25264709 17.35796844 42.99856567 17.37937927 C45.29062239 17.44428853 47.58278474 17.50348437 49.875 17.5625 C51.43751053 17.60574112 53.00001072 17.64935711 54.5625 17.69335938 C58.37489426 17.79990896 62.1873938 17.90133795 66 18 C66 18.33 66 18.66 66 19 C58.08 19.33 50.16 19.66 42 20 C43.49121632 21.49121632 45.05558233 21.32335607 47.125 21.625 C52.00861702 22.63113346 54.14429305 24.75720971 57.37890625 28.41015625 C59.0257536 30.27199926 59.0257536 30.27199926 62.125 30.9375 C66.51458949 32.5597396 68.05076539 35.88931572 70 40 C70.8125 43 70.8125 43 71 45 C69.35 45 67.7 45 66 45 C65.8040625 44.39671875 65.608125 43.7934375 65.40625 43.171875 C63.65699728 38.29639855 63.65699728 38.29639855 60.12890625 34.6875 C58.74553283 34.05988257 57.34757917 33.46350599 55.9375 32.8984375 C54 32 54 32 51.5625 29.375 C48.42848429 26.47030251 46.21833939 26.23327973 42.1171875 25.52734375 C40 25 40 25 37.625 23 C34.06484518 20.28750109 30.6957224 20.01930788 26.328125 19.39453125 C24 19 24 19 23 18 C22.95919217 16.00041636 22.95745644 13.99954746 23 12 C22.39671875 11.90203125 21.7934375 11.8040625 21.171875 11.703125 C14.42748092 10.44127062 14.42748092 10.44127062 12.0625 8 C8.73959258 4.77778674 4.46563733 4.64768786 0 4 C0 2.68 0 1.36 0 0 Z " fill="#D6DBE6" transform="translate(34,98)"/>
<path d="M0 0 C9.57 0 19.14 0 29 0 C29.66 1.32 30.32 2.64 31 4 C23.41 4 15.82 4 8 4 C8.33 4.66 8.66 5.32 9 6 C16.59 6.33 24.18 6.66 32 7 C32.33 6.34 32.66 5.68 33 5 C36 9.75 36 9.75 36 12 C31.03377651 12.02465098 26.06758834 12.04283649 21.10131836 12.05493164 C19.41055684 12.0599719 17.71979971 12.06680405 16.02905273 12.07543945 C13.60399293 12.08751857 11.17899056 12.09323123 8.75390625 12.09765625 C7.61327477 12.10539818 7.61327477 12.10539818 6.44960022 12.11329651 C4.6326743 12.11349238 2.81586873 12.06197277 1 12 C0.67 11.67 0.34 11.34 0 11 C0 7.37 0 3.74 0 0 Z " fill="#ADB5C7" transform="translate(213,63)"/>
<path d="M0 0 C21.78 0 43.56 0 66 0 C66 0.99 66 1.98 66 3 C44.22 3 22.44 3 0 3 C0 2.01 0 1.02 0 0 Z " fill="#F1F3FA" transform="translate(55,61)"/>
<path d="M0 0 C11.55 0 23.1 0 35 0 C35 1.32 35 2.64 35 4 C23.78 4 12.56 4 1 4 C0.67 2.68 0.34 1.36 0 0 Z " fill="#F1F3FA" transform="translate(55,71)"/>
<path d="M0 0 C6.08710419 0.12681467 8.87253664 2.12198865 13.30078125 6.2109375 C15.86735453 8.91321465 16.97666829 10.40504149 17.125 14.1875 C17.08375 15.115625 17.0425 16.04375 17 17 C14.8125 17.5 14.8125 17.5 12 17 C10.80078125 15.32421875 10.80078125 15.32421875 9.625 13.1875 C7.10819062 8.64437763 4.88982262 7.534062 0 6 C0 4.02 0 2.04 0 0 Z " fill="#ADB5C7" transform="translate(68,168)"/>
<path d="M0 0 C0.99 0 1.98 0 3 0 C3 1.98 3 3.96 3 6 C1.9790625 6.0309375 1.9790625 6.0309375 0.9375 6.0625 C-3.47854907 7.47187736 -6.17799948 10.38692656 -9 14 C-10.02649583 16.75145037 -10.02649583 16.75145037 -10 19 C-10.66 19 -11.32 19 -12 19 C-12 19.66 -12 20.32 -12 21 C-13.65 20.67 -15.3 20.34 -17 20 C-17.625 17.625 -17.625 17.625 -18 15 C-16 13 -16 13 -13.66796875 12.12109375 C-10.63868627 10.84817417 -8.734521 9.27069232 -6.3125 7.0625 C-5.54550781 6.37285156 -4.77851563 5.68320313 -3.98828125 4.97265625 C-1.83234542 2.96516611 -1.83234542 2.96516611 0 0 Z " fill="#DEE2EA" transform="translate(229,112)"/>
<path d="M0 0 C1.98 0 3.96 0 6 0 C6.33 4.95 6.66 9.9 7 15 C5.02 15 3.04 15 1 15 C0 14 0 14 -0.09765625 10.83984375 C-0.08025391 8.90818359 -0.08025391 8.90818359 -0.0625 6.9375 C-0.05347656 5.64714844 -0.04445312 4.35679688 -0.03515625 3.02734375 C-0.02355469 2.02832031 -0.01195312 1.02929688 0 0 Z " fill="#B2B9CA" transform="translate(135,115)"/>
<path d="M0 0 C1.65 0 3.3 0 5 0 C7.60018816 3.90028225 7.15085514 7.47434569 7 12 C4.69 12 2.38 12 0 12 C0 8.04 0 4.08 0 0 Z " fill="#B8BECE" transform="translate(163,118)"/>
<path d="M0 0 C1.65 0 3.3 0 5 0 C5 4.29 5 8.58 5 13 C4.01 13 3.02 13 2 13 C2 14.32 2 15.64 2 17 C1.34 17 0.68 17 0 17 C0 11.39 0 5.78 0 0 Z " fill="#ADB4C7" transform="translate(154,112)"/>
<path d="M0 0 C1.65 0 3.3 0 5 0 C5 3.63 5 7.26 5 11 C4.01 11 3.02 11 2 11 C2 13.97 2 16.94 2 20 C1.34 20 0.68 20 0 20 C0 13.4 0 6.8 0 0 Z " fill="#B0B7C9" transform="translate(126,109)"/>
<path d="M0 0 C7.59 0 15.18 0 23 0 C23.33 0.99 23.66 1.98 24 3 C16.41 3 8.82 3 1 3 C0.67 2.01 0.34 1.02 0 0 Z " fill="#F0F1F4" transform="translate(221,67)"/>
<path d="M0 0 C1.65 0 3.3 0 5 0 C5 4.29 5 8.58 5 13 C3.35 13.33 1.7 13.66 0 14 C0 9.38 0 4.76 0 0 Z " fill="#B0B8C9" transform="translate(172,115)"/>
<path d="M0 0 C7.26 0 14.52 0 22 0 C22 0.99 22 1.98 22 3 C14.74 3 7.48 3 0 3 C0 2.01 0 1.02 0 0 Z " fill="#D7DCE6" transform="translate(144,202)"/>
<path d="M0 0 C0.33 0 0.66 0 1 0 C1.70132913 6.70019789 2.11044961 13.26257354 2 20 C0.02 20.33 -1.96 20.66 -4 21 C-3.67 17.7 -3.34 14.4 -3 11 C-2.01 11 -1.02 11 0 11 C0 7.37 0 3.74 0 0 Z " fill="#D7DBE5" transform="translate(131,109)"/>
<path d="M0 0 C2.31 0 4.62 0 7 0 C6.01 2.97 5.02 5.94 4 9 C3.01 9 2.02 9 1 9 C0.34 8.34 -0.32 7.68 -1 7 C-0.625 3.375 -0.625 3.375 0 0 Z " fill="#D8DDE7" transform="translate(79,188)"/>
<path d="M0 0 C4.29 0 8.58 0 13 0 C13 1.32 13 2.64 13 4 C8.71 4 4.42 4 0 4 C0 2.68 0 1.36 0 0 Z " fill="#D8DCE6" transform="translate(34,71)"/>
<path d="M0 0 C1.65 0 3.3 0 5 0 C5 3.3 5 6.6 5 10 C3.35 10 1.7 10 0 10 C0 6.7 0 3.4 0 0 Z " fill="#B0B8C9" transform="translate(182,119)"/>
<path d="M0 0 C0.33 0 0.66 0 1 0 C1.33 4.95 1.66 9.9 2 15 C0.02 15 -1.96 15 -4 15 C-3.67 12.69 -3.34 10.38 -3 8 C-2.01 8 -1.02 8 0 8 C0 5.36 0 2.72 0 0 Z " fill="#D5D9E4" transform="translate(140,115)"/>
<path d="M0 0 C4.62 0 9.24 0 14 0 C14 0.99 14 1.98 14 3 C9.38 3 4.76 3 0 3 C0 2.01 0 1.02 0 0 Z " fill="#D9DDE8" transform="translate(144,184)"/>
<path d="M0 0 C2.475 0.495 2.475 0.495 5 1 C5 2.98 5 4.96 5 7 C4.01 7 3.02 7 2 7 C2 7.99 2 8.98 2 10 C1.34 10 0.68 10 0 10 C0 6.7 0 3.4 0 0 Z " fill="#B1B8CA" transform="translate(145,119)"/>
<path d="M0 0 C4.29 0 8.58 0 13 0 C13 0.99 13 1.98 13 3 C8.71 3 4.42 3 0 3 C0 2.01 0 1.02 0 0 Z " fill="#D5DAE5" transform="translate(34,61)"/>
<path d="M0 0 C2.67927341 4.01891012 2.15601248 6.24161923 2 11 C-0.31 11 -2.62 11 -5 11 C-4.01 10.67 -3.02 10.34 -2 10 C-2 7.69 -2 5.38 -2 3 C-1.34 3 -0.68 3 0 3 C0 2.01 0 1.02 0 0 Z " fill="#D9DDE7" transform="translate(168,119)"/>
<path d="M0 0 C3.96 0 7.92 0 12 0 C12 0.99 12 1.98 12 3 C8.04 3 4.08 3 0 3 C0 2.01 0 1.02 0 0 Z " fill="#D9DDE8" transform="translate(176,184)"/>
<path d="M0 0 C2.97 0.495 2.97 0.495 6 1 C6 2.65 6 4.3 6 6 C4.35 5.67 2.7 5.34 1 5 C0.67 3.35 0.34 1.7 0 0 Z " fill="#E8EBF1" transform="translate(211,127)"/>
<path d="M0 0 C1.65 0 3.3 0 5 0 C5 1.65 5 3.3 5 5 C2.69 5 0.38 5 -2 5 C-1.34 4.67 -0.68 4.34 0 4 C0 2.68 0 1.36 0 0 Z " fill="#DBDFE9" transform="translate(156,125)"/>
<path d="M0 0 C0.33 0 0.66 0 1 0 C1 4.29 1 8.58 1 13 C1.66 13 2.32 13 3 13 C3 13.66 3 14.32 3 15 C0.69 15 -1.62 15 -4 15 C-2.68 14.34 -1.36 13.68 0 13 C0 8.71 0 4.42 0 0 Z " fill="#D9DDE6" transform="translate(177,115)"/>
<path d="M0 0 C2.31 0 4.62 0 7 0 C7 0.99 7 1.98 7 3 C4.69 3 2.38 3 0 3 C0 2.01 0 1.02 0 0 Z " fill="#DADFE9" transform="translate(181,166)"/>
<path d="M0 0 C1.32 0 2.64 0 4 0 C4 1.32 4 2.64 4 4 C2.02 4 0.04 4 -2 4 C-1.34 3.67 -0.68 3.34 0 3 C0 2.01 0 1.02 0 0 Z " fill="#DADEE7" transform="translate(147,126)"/>
<path d="M0 0 C1.32 0 2.64 0 4 0 C3.67 1.65 3.34 3.3 3 5 C2.01 4.67 1.02 4.34 0 4 C0 2.68 0 1.36 0 0 Z " fill="#F0F2F6" transform="translate(247,129)"/>
</svg>
