<?xml version="1.0" encoding="UTF-8"?>
<!-- Generator: visioncortex VTracer 0.6.4 -->
<svg version="1.1" xmlns="http://www.w3.org/2000/svg" width="118" height="115">
<path d="M0 0 C38.94 0 77.88 0 118 0 C118 37.95 118 75.9 118 115 C79.06 115 40.12 115 0 115 C0 77.05 0 39.1 0 0 Z " fill="#D9032C" transform="translate(0,0)"/>
<path d="M0 0 C2.5 0.3125 2.5 0.3125 5 1 C5.33 1.66 5.66 2.32 6 3 C9.3 3 12.6 3 16 3 C16.33 2.01 16.66 1.02 17 0 C18.32 0.66 19.64 1.32 21 2 C20.93433838 2.60046143 20.86867676 3.20092285 20.80102539 3.81958008 C19.93290834 12.43139683 19.67409758 21.04154841 19.4375 29.6875 C19.39418922 31.17904546 19.35057152 32.67058205 19.30664062 34.16210938 C19.20089527 37.77464429 19.09928034 41.38728094 19 45 C15.39345961 42.59563974 15.14547068 41.05320393 14 37 C13.5875 37.515625 13.175 38.03125 12.75 38.5625 C11 40 11 40 9 40 C6.22574216 38.61287108 5.38838046 36.7073419 4 34 C4 37.3 4 40.6 4 44 C0 42 0 42 -1.23828125 39.921875 C-2.26585193 35.98021926 -2.25349699 32.30574024 -2.1875 28.25 C-2.18032959 27.42322754 -2.17315918 26.59645508 -2.16577148 25.74462891 C-2.09129703 19.94886152 -1.87952221 14.16236819 -1.5625 8.375 C-1.52342529 7.64700195 -1.48435059 6.91900391 -1.4440918 6.16894531 C-1.12536377 1.12536377 -1.12536377 1.12536377 0 0 Z " fill="#D70F35" transform="translate(75,31)"/>
<path d="M0 0 C0.86625 0.144375 1.7325 0.28875 2.625 0.4375 C2.625 4.4375 2.625 4.4375 1.26953125 5.89453125 C0.66496094 6.34183594 0.06039062 6.78914063 -0.5625 7.25 C-4.34889372 10.28219334 -6.80818183 13.31503446 -9.375 17.4375 C-9.375 18.4275 -9.375 19.4175 -9.375 20.4375 C-7.8590625 19.4475 -7.8590625 19.4475 -6.3125 18.4375 C-2.59437109 16.28250284 0.31415491 16.08559428 4.625 16.4375 C4.1951819 20.4491356 3.73822138 24.05323351 2.59375 27.9375 C1.1539025 33.55015395 1.41049659 39.18174229 1.5 44.9375 C1.50902344 46.04609375 1.51804687 47.1546875 1.52734375 48.296875 C1.55073833 51.01064592 1.58351825 53.72395545 1.625 56.4375 C-2.46179883 52.53344421 -4.23214497 49.61840543 -4.4921875 43.828125 C-4.4991573 41.36081752 -4.46270922 38.90310358 -4.375 36.4375 C-4.99375 36.76878906 -5.6125 37.10007813 -6.25 37.44140625 C-8.375 38.4375 -8.375 38.4375 -10.375 38.375 C-13.22320505 37.03990388 -14.5671829 34.95553096 -16.375 32.4375 C-17.365 33.0975 -18.355 33.7575 -19.375 34.4375 C-21.5625 34.0625 -21.5625 34.0625 -23.375 33.4375 C-23.375 32.1175 -23.375 30.7975 -23.375 29.4375 C-21.9828125 29.004375 -21.9828125 29.004375 -20.5625 28.5625 C-16.4401707 25.81428047 -16.30044832 23.76145636 -15.140625 19.12890625 C-13.12851726 12.0557316 -7.90484908 1.02470266 0 0 Z " fill="#FCE2E6" transform="translate(42.375,31.5625)"/>
<path d="M0 0 C2.4375 0.375 2.4375 0.375 5 1 C7.42936503 5.85873006 6.23004187 12.70340036 5.3125 17.875 C3.78017994 21.5233811 2.03324918 23.48462263 -1 26 C-1.99 26.33 -2.98 26.66 -4 27 C-4 28.32 -4 29.64 -4 31 C0.41405442 30.59872233 2.959012 28.79660605 6.3515625 26.15625 C8 25 8 25 11 24 C10.51402344 23.29746094 10.02804688 22.59492187 9.52734375 21.87109375 C6.98082015 17.08415041 7.35672721 12.28913185 8 7 C8.98750342 4.17552785 9.81481475 3.18518525 12 1 C14.75 0.125 14.75 0.125 17 0 C19.5168472 5.03369441 18.75269259 14.14676994 17.328125 19.546875 C16.5 21.4375 16.5 21.4375 15 24 C16.65 24 18.3 24 20 24 C20.33 26.31 20.66 28.62 21 31 C19.02 31.99 19.02 31.99 17 33 C17.33 31.35 17.66 29.7 18 28 C17.34 27.67 16.68 27.34 16 27 C14.700625 27.8971875 14.700625 27.8971875 13.375 28.8125 C7.89713706 32.41736999 3.7698044 34.75220049 -3 34 C-5.4375 32.5 -5.4375 32.5 -7 31 C-6.64950425 27.75791433 -6.43778819 26.38472296 -3.9375 24.1875 C-3.298125 23.795625 -2.65875 23.40375 -2 23 C-2.66 22.34 -3.32 21.68 -4 21 C-5.94588399 15.94070163 -5.65670902 10.58207174 -3.625 5.6875 C-2.46175508 3.76367186 -1.2470585 1.87058776 0 0 Z " fill="#F8ABB8" transform="translate(53,47)"/>
<path d="M0 0 C1.32 0.66 2.64 1.32 4 2 C3.93433838 2.60046143 3.86867676 3.20092285 3.80102539 3.81958008 C2.93290834 12.43139683 2.67409758 21.04154841 2.4375 29.6875 C2.39418922 31.17904546 2.35057152 32.67058205 2.30664062 34.16210938 C2.20089527 37.77464429 2.09928034 41.38728094 2 45 C-1.60654039 42.59563974 -1.85452932 41.05320393 -3 37 C-3.4125 37.515625 -3.825 38.03125 -4.25 38.5625 C-6 40 -6 40 -8.0625 39.8125 C-10 39 -10 39 -12 37 C-12.30078125 33.953125 -12.30078125 33.953125 -12.3125 30.25 C-12.32925781 29.03828125 -12.34601563 27.8265625 -12.36328125 26.578125 C-11.87564263 21.77514678 -10.41807316 18.41807316 -7 15 C-3.875 14.875 -3.875 14.875 -1 15 C-1.01160156 14.33613281 -1.02320312 13.67226563 -1.03515625 12.98828125 C-1.12478032 4.21792619 -1.12478032 4.21792619 0 0 Z " fill="#FBDCE3" transform="translate(92,31)"/>
<path d="M0 0 C0.86625 0.144375 1.7325 0.28875 2.625 0.4375 C2.625 4.4375 2.625 4.4375 1.26953125 5.89453125 C0.66496094 6.34183594 0.06039062 6.78914063 -0.5625 7.25 C-4.84609986 10.72553742 -8.75147091 14.19728046 -9.83203125 19.8125 C-9.98003358 21.37781273 -10.08532869 22.94807724 -10.13671875 24.51953125 C-10.375 26.4375 -10.375 26.4375 -12.375 28.4375 C-13.0175235 30.50624034 -13.0175235 30.50624034 -13.375 32.4375 C-14.1175 32.581875 -14.86 32.72625 -15.625 32.875 C-17.89527739 33.33937492 -20.13259479 33.85613569 -22.375 34.4375 C-23.035 33.1175 -23.695 31.7975 -24.375 30.4375 C-22.7353125 29.756875 -22.7353125 29.756875 -21.0625 29.0625 C-18.61128502 27.67233199 -17.56365369 26.86639839 -16.41796875 24.26171875 C-15.9611776 22.54407716 -15.52457447 20.82097355 -15.10546875 19.09375 C-13.1613246 12.02413491 -7.86435595 1.01945355 0 0 Z " fill="#FCEBEE" transform="translate(42.375,31.5625)"/>
<path d="M0 0 C2.0625 0.4375 2.0625 0.4375 4 1 C4.02757191 2.66656881 4.04664803 4.33327851 4.0625 6 C4.07410156 6.928125 4.08570312 7.85625 4.09765625 8.8125 C4 12 4 12 3.5 15.625 C2.76924632 21.07161131 2.89287611 26.51469415 2.9375 32 C2.94201172 33.06089844 2.94652344 34.12179688 2.95117188 35.21484375 C2.96286157 37.80995598 2.97924724 40.40494709 3 43 C0 42 0 42 -1.17578125 39.984375 C-2.27291034 36.01183176 -2.25423203 32.35091101 -2.1875 28.25 C-2.18032959 27.42322754 -2.17315918 26.59645508 -2.16577148 25.74462891 C-2.09129703 19.94886152 -1.87952221 14.16236819 -1.5625 8.375 C-1.52342529 7.64700195 -1.48435059 6.91900391 -1.4440918 6.16894531 C-1.12536377 1.12536377 -1.12536377 1.12536377 0 0 Z " fill="#FDEEF1" transform="translate(75,31)"/>
<path d="M0 0 C0.68795629 2.14030846 1.12110779 3.54786424 0.53125 5.75 C-0.14832145 8.62818495 -0.09460786 11.29607684 -0.0625 14.25 C-0.05347656 15.32765625 -0.04445313 16.4053125 -0.03515625 17.515625 C-0.02355469 18.33546875 -0.01195313 19.1553125 0 20 C3.33247818 13.8000918 3.33247818 13.8000918 5 7 C5.99 7 6.98 7 8 7 C8 13.27 8 19.54 8 26 C7.34 26 6.68 26 6 26 C5.34 24.02 4.68 22.04 4 20 C3.5875 20.515625 3.175 21.03125 2.75 21.5625 C1 23 1 23 -1.0625 22.8125 C-3 22 -3 22 -5 20 C-5.6457656 14.69792456 -6.30678814 8.63178936 -3.87890625 3.7421875 C-2.5 2.125 -2.5 2.125 0 0 Z " fill="#FDF6F8" transform="translate(85,48)"/>
<path d="M0 0 C1.32 0.33 2.64 0.66 4 1 C3.67 1.825 3.34 2.65 3 3.5 C1.34424349 9.29514779 1.23856591 14.47713182 4 20 C4.33 20.66 4.66 21.32 5 22 C4.175 22.391875 3.35 22.78375 2.5 23.1875 C1.2625 24.0846875 1.2625 24.0846875 0 25 C-0.41780879 27.62694422 -0.41780879 27.62694422 0 30 C-0.66 30 -1.32 30 -2 30 C-2 33.3 -2 36.6 -2 40 C-3.32 39.67 -4.64 39.34 -6 39 C-5.67 38.34 -5.34 37.68 -5 37 C-4.67 37.33 -4.34 37.66 -4 38 C-4.01047363 37.34515625 -4.02094727 36.6903125 -4.03173828 36.015625 C-4.07365359 33.01045668 -4.09943809 30.00535016 -4.125 27 C-4.14175781 25.97003906 -4.15851562 24.94007812 -4.17578125 23.87890625 C-4.21414209 17.85625493 -3.75016128 12.76523716 -2 7 C-1.79117188 6.236875 -1.58234375 5.47375 -1.3671875 4.6875 C-0.68359375 2.34375 -0.68359375 2.34375 0 0 Z " fill="#D4193E" transform="translate(47,49)"/>
<path d="M0 0 C0.99 0.66 1.98 1.32 3 2 C3.2578125 5.15234375 3.2578125 5.15234375 3.125 8.9375 C2.91087119 14.0616547 2.91087119 14.0616547 4 19 C4.66 19.66 5.32 20.32 6 21 C5.31292969 21.40992187 4.62585937 21.81984375 3.91796875 22.2421875 C3.01691406 22.78101562 2.11585937 23.31984375 1.1875 23.875 C-0.15248047 24.67550781 -0.15248047 24.67550781 -1.51953125 25.4921875 C-3.37294724 26.61883092 -5.19529917 27.79686611 -7 29 C-9.1875 28.625 -9.1875 28.625 -11 28 C-10.67 26.35 -10.34 24.7 -10 23 C-9.21625 22.9175 -8.4325 22.835 -7.625 22.75 C-4.94592556 22.27521535 -4.94592556 22.27521535 -3.8125 20.375 C-3.544375 19.59125 -3.27625 18.8075 -3 18 C-2.649375 16.989375 -2.29875 15.97875 -1.9375 14.9375 C-0.58582547 10.06295719 -0.34545625 5.0272976 0 0 Z " fill="#D5143A" transform="translate(59,50)"/>
<path d="M0 0 C2.4375 0.375 2.4375 0.375 5 1 C7.39599518 5.79199035 6.47705767 12.96874719 5.1875 18.0625 C4 21 4 21 1 23 C-0.25433458 19.23699626 -0.10695422 15.72789091 -0.0625 11.8125 C-0.05798828 11.06291016 -0.05347656 10.31332031 -0.04882812 9.54101562 C-0.03706354 7.69397617 -0.01912865 5.84697787 0 4 C-0.99 4.66 -1.98 5.32 -3 6 C-2 4 -1 2 0 0 Z " fill="#FCD1DA" transform="translate(53,47)"/>
<path d="M0 0 C-2.61856889 13.156712 -2.61856889 13.156712 -8 18 C-8.99 18 -9.98 18 -11 18 C-11.82813096 14.93104411 -12.29764092 12.17819969 -12 9 C-9.53769045 5.29613155 -4.66515567 0 0 0 Z " fill="#D60C32" transform="translate(42,50)"/>
<path d="M0 0 C1.32 0 2.64 0 4 0 C5.49368864 2.98737728 5.18437999 6.03960907 5.1875 9.3125 C5.20167969 10.62863281 5.21585938 11.94476563 5.23046875 13.30078125 C5.01736646 16.72125367 4.49124982 18.95266341 3 22 C2.01 21.67 1.02 21.34 0 21 C0 15.72 0 10.44 0 5 C-1.98 5.99 -1.98 5.99 -4 7 C-2.92598892 4.08482708 -2.22189824 2.22189824 0 0 Z " fill="#F8BDC9" transform="translate(66,47)"/>
<path d="M0 0 C0.33 0 0.66 0 1 0 C0.99214478 1.23302856 0.99214478 1.23302856 0.98413086 2.4909668 C0.96331607 6.22313673 0.95032545 9.95529442 0.9375 13.6875 C0.92912109 14.98107422 0.92074219 16.27464844 0.91210938 17.60742188 C0.90888672 18.85458984 0.90566406 20.10175781 0.90234375 21.38671875 C0.89710693 22.53358154 0.89187012 23.68044434 0.88647461 24.86206055 C0.98924193 27.70263777 1.34683584 30.24043792 2 33 C0.515 33.495 0.515 33.495 -1 34 C-1.33 33.34 -1.66 32.68 -2 32 C-4.52733235 31.34444881 -4.52733235 31.34444881 -7 31 C-6.2884375 30.1028125 -6.2884375 30.1028125 -5.5625 29.1875 C-3.36572952 26.11202132 -2.87466008 23.67020939 -2.90234375 19.98828125 C-2.90556641 19.23095703 -2.90878906 18.47363281 -2.91210938 17.69335938 C-2.92467773 16.51483398 -2.92467773 16.51483398 -2.9375 15.3125 C-2.94201172 14.51521484 -2.94652344 13.71792969 -2.95117188 12.89648438 C-2.9629415 10.93095743 -2.98087652 8.96546915 -3 7 C-2.34 6.67 -1.68 6.34 -1 6 C-0.34227572 2.97065509 -0.34227572 2.97065509 0 0 Z " fill="#D2193D" transform="translate(73,40)"/>
<path d="M0 0 C0 6.6 0 13.2 0 20 C-4 19 -4 19 -5.25 16.9375 C-6.4654304 12.17706428 -6.57215931 7.71647793 -5 3 C-1.44444444 0 -1.44444444 0 0 0 Z " fill="#FBEBEE" transform="translate(54,50)"/>
<path d="M0 0 C0 5.28 0 10.56 0 16 C0.66 16 1.32 16 2 16 C2 16.66 2 17.32 2 18 C0.35 18 -1.3 18 -3 18 C-5.07105779 14.58399233 -5.29789494 11.8378401 -5.3125 7.875 C-5.32925781 6.82054687 -5.34601562 5.76609375 -5.36328125 4.6796875 C-5.24339844 3.79539063 -5.12351563 2.91109375 -5 2 C-2 0 -2 0 0 0 Z " fill="#FDF0F2" transform="translate(66,52)"/>
<path d="M0 0 C0.33 0 0.66 0 1 0 C1.55353075 14.78132118 1.55353075 14.78132118 -2 21 C-2.66 20.67 -3.32 20.34 -4 20 C-4.31393637 12.91899067 -4.49130512 7.28434922 -1 1 C-0.67 0.67 -0.34 0.34 0 0 Z " fill="#D8042A" transform="translate(88,48)"/>
<path d="M0 0 C0.99 0 1.98 0 3 0 C3 6.27 3 12.54 3 19 C2.34 19 1.68 19 1 19 C0.67 16.36 0.34 13.72 0 11 C-0.66 11 -1.32 11 -2 11 C-1.40049704 7.31733897 -0.75241109 3.65456815 0 0 Z " fill="#FDF8F9" transform="translate(90,55)"/>
<path d="M0 0 C0.06058594 0.845625 0.12117188 1.69125 0.18359375 2.5625 C0.63959033 8.7359922 1.15820112 14.86689384 2 21 C-0.52588702 18.63707344 -1.88820837 17.33537489 -3 14 C-3.06937062 11.77181559 -3.08457084 9.54165476 -3.0625 7.3125 C-3.05347656 6.13300781 -3.04445312 4.95351562 -3.03515625 3.73828125 C-3.02355469 2.83464844 -3.01195312 1.93101563 -3 1 C-1 0 -1 0 0 0 Z " fill="#FDF4F6" transform="translate(42,67)"/>
<path d="M0 0 C2.64 0.33 5.28 0.66 8 1 C8.33 3.31 8.66 5.62 9 8 C7.02 8.99 7.02 8.99 5 10 C5.33 8.35 5.66 6.7 6 5 C5.34 4.67 4.68 4.34 4 4 C1.82343051 4.73258762 1.82343051 4.73258762 -0.5 5.875 C-1.2940625 6.24367188 -2.088125 6.61234375 -2.90625 6.9921875 C-4.27573124 7.6513781 -5.64058509 8.32029254 -7 9 C-6.8125 7.125 -6.8125 7.125 -6 5 C-4.34795544 4.29788106 -2.68076231 3.63028587 -1 3 C-0.67 2.01 -0.34 1.02 0 0 Z " fill="#E87E93" transform="translate(65,70)"/>
<path d="M0 0 C0.66 0.33 1.32 0.66 2 1 C2.3690205 12.52164009 2.3690205 12.52164009 0 18 C-0.66 17.67 -1.32 17.34 -2 17 C-2.3690205 5.47835991 -2.3690205 5.47835991 0 0 Z " fill="#D22A4B" transform="translate(55,50)"/>
<path d="M0 0 C0.33 0 0.66 0 1 0 C1.02757191 1.66656881 1.04664803 3.33327851 1.0625 5 C1.07410156 5.928125 1.08570312 6.85625 1.09765625 7.8125 C1 11 1 11 0.5 14.625 C-0.23075368 20.07161131 -0.10712389 25.51469415 -0.0625 31 C-0.05798828 32.06089844 -0.05347656 33.12179688 -0.04882812 34.21484375 C-0.03713843 36.80995598 -0.02075276 39.40494709 0 42 C-0.99 41.67 -1.98 41.34 -3 41 C-3.495 39.515 -3.495 39.515 -4 38 C-3.34 38 -2.68 38 -2 38 C-2.02320312 36.76507813 -2.04640625 35.53015625 -2.0703125 34.2578125 C-2.21752502 22.6786274 -1.55191972 11.4731208 0 0 Z " fill="#FBCED8" transform="translate(78,32)"/>
<path d="M0 0 C0.99 0.99 1.98 1.98 3 3 C4.32 2.01 5.64 1.02 7 0 C7.66 0.99 8.32 1.98 9 3 C8.175 3.391875 7.35 3.78375 6.5 4.1875 C5.2625 5.0846875 5.2625 5.0846875 4 6 C3.58219121 8.62694422 3.58219121 8.62694422 4 11 C3.34 11 2.68 11 2 11 C2 14.3 2 17.6 2 21 C0.68 20.67 -0.64 20.34 -2 20 C-1.67 19.34 -1.34 18.68 -1 18 C-0.67 18.33 -0.34 18.66 0 19 C0 12.73 0 6.46 0 0 Z " fill="#CF1D40" transform="translate(43,68)"/>
<path d="M0 0 C0.33 0 0.66 0 1 0 C1.33 3.63 1.66 7.26 2 11 C2.66 9.68 3.32 8.36 4 7 C4.33 9.31 4.66 11.62 5 14 C5.99 13.01 6.98 12.02 8 11 C8.66 11.33 9.32 11.66 10 12 C8.89113011 14.21773977 7.9581636 15.47698387 6 17 C3.02602384 16.72963853 2.14553974 16.14553974 0 14 C-0.1953125 10.7421875 -0.1953125 10.7421875 -0.125 6.875 C-0.10695313 5.59367187 -0.08890625 4.31234375 -0.0703125 2.9921875 C-0.04710938 2.00476562 -0.02390625 1.01734375 0 0 Z " fill="#FCD2D8" transform="translate(80,54)"/>
<path d="M0 0 C0.66 0 1.32 0 2 0 C2.02707139 2.24993359 2.04642829 4.49996095 2.0625 6.75 C2.07410156 8.00296875 2.08570312 9.2559375 2.09765625 10.546875 C2.02021027 13.28536501 1.82780815 15.41880293 1 18 C0.34 18 -0.32 18 -1 18 C-1.02707139 15.75006641 -1.04642829 13.50003905 -1.0625 11.25 C-1.07410156 9.99703125 -1.08570312 8.7440625 -1.09765625 7.453125 C-1.02021027 4.71463499 -0.82780815 2.58119707 0 0 Z " fill="#D11A3E" transform="translate(67,50)"/>
<path d="M0 0 C2 1 2 1 3.3125 3.5625 C4.1478125 4.7690625 4.1478125 4.7690625 5 6 C7.62694422 6.41780879 7.62694422 6.41780879 10 6 C9.67 6.66 9.34 7.32 9 8 C7.9275 7.835 6.855 7.67 5.75 7.5 C1.96971248 6.91189085 1.96971248 6.91189085 -2 7 C-2 6.34 -2 5.68 -2 5 C-3.98 4.34 -5.96 3.68 -8 3 C-7.67 2.34 -7.34 1.68 -7 1 C-6.401875 1.20625 -5.80375 1.4125 -5.1875 1.625 C-2.71549154 2.30671915 -2.71549154 2.30671915 0 0 Z " fill="#D31D40" transform="translate(26,63)"/>
<path d="M0 0 C0.33 0 0.66 0 1 0 C0.67 7.92 0.34 15.84 0 24 C-2.42479736 20.36280395 -2.38662577 18.14296518 -2.625 13.8125 C-2.69976562 12.54019531 -2.77453125 11.26789062 -2.8515625 9.95703125 C-2.90054688 8.98121094 -2.94953125 8.00539063 -3 7 C-2.34 6.67 -1.68 6.34 -1 6 C-0.34227572 2.97065509 -0.34227572 2.97065509 0 0 Z " fill="#D23655" transform="translate(73,40)"/>
<path d="M0 0 C0.99 0.66 1.98 1.32 3 2 C2.67 3.98 2.34 5.96 2 8 C0.68 8 -0.64 8 -2 8 C-2.33 7.34 -2.66 6.68 -3 6 C-3.99 5.34 -4.98 4.68 -6 4 C-4.02 2.68 -2.04 1.36 0 0 Z " fill="#D5163B" transform="translate(69,73)"/>
<path d="M0 0 C0.66 0.66 1.32 1.32 2 2 C1.625 5.625 1.625 5.625 1 9 C-0.32 9.33 -1.64 9.66 -3 10 C-3.36923077 4.58461538 -3.36923077 4.58461538 -1.5 1.625 C-1.005 1.08875 -0.51 0.5525 0 0 Z " fill="#D9082F" transform="translate(47,62)"/>
<path d="M0 0 C0.99 0.33 1.98 0.66 3 1 C-0.3 4.63 -3.6 8.26 -7 12 C-6.67 12.66 -6.34 13.32 -6 14 C-7.98 14.99 -7.98 14.99 -10 16 C-8.65846062 10.99971686 -6.51629997 6.80932497 -3 3 C-2.34 3 -1.68 3 -1 3 C-0.67 2.01 -0.34 1.02 0 0 Z " fill="#D62A4D" transform="translate(41,38)"/>
<path d="M0 0 C-1.11666174 3.34998521 -1.74694925 3.79340222 -4.5625 5.6875 C-5.20316406 6.12449219 -5.84382813 6.56148437 -6.50390625 7.01171875 C-6.99761719 7.33785156 -7.49132813 7.66398437 -8 8 C-8 6.68 -8 5.36 -8 4 C-2.88888889 0 -2.88888889 0 0 0 Z " fill="#FAC9CF" transform="translate(40,49)"/>
<path d="M0 0 C0.66 0 1.32 0 2 0 C0.63629701 2.99220268 -0.94908083 5.29026529 -3.125 7.75 C-3.93324219 8.67039062 -3.93324219 8.67039062 -4.7578125 9.609375 C-5.16773438 10.06828125 -5.57765625 10.5271875 -6 11 C-6.66 10.67 -7.32 10.34 -8 10 C-6.85500893 8.52018126 -5.708983 7.04116318 -4.5625 5.5625 C-3.60537109 4.32693359 -3.60537109 4.32693359 -2.62890625 3.06640625 C-1 1 -1 1 0 0 Z " fill="#FCDCDF" transform="translate(39,32)"/>
<path d="M0 0 C0.33 0 0.66 0 1 0 C1.05398987 2.27057377 1.09278742 4.54151288 1.125 6.8125 C1.14820312 8.07707031 1.17140625 9.34164062 1.1953125 10.64453125 C1 14 1 14 -1 17 C-1 1 -1 1 0 0 Z " fill="#CB2040" transform="translate(88,48)"/>
<path d="M0 0 C0.66 0.33 1.32 0.66 2 1 C-1.0684847 3.97550031 -2.46236331 4.96474513 -6.8125 5.25 C-7.864375 5.1675 -8.91625 5.085 -10 5 C-8.35 3.68 -6.7 2.36 -5 1 C-4.67 1.66 -4.34 2.32 -4 3 C-2.68 2.01 -1.36 1.02 0 0 Z " fill="#E87F95" transform="translate(63,75)"/>
<path d="M0 0 C0.33 0 0.66 0 1 0 C0.67 4.29 0.34 8.58 0 13 C0.66 13 1.32 13 2 13 C1.34 14.32 0.68 15.64 0 17 C-1 16 -1 16 -1.1328125 13.41796875 C-1.13023438 12.35191406 -1.12765625 11.28585938 -1.125 10.1875 C-1.12757812 9.12917969 -1.13015625 8.07085937 -1.1328125 6.98046875 C-1.02063661 4.46310983 -0.7309121 2.39576745 0 0 Z " fill="#D41F45" transform="translate(85,52)"/>
<path d="M0 0 C1.32 0.33 2.64 0.66 4 1 C4 5.29 4 9.58 4 14 C3.67 14 3.34 14 3 14 C2.67 10.04 2.34 6.08 2 2 C1.34 2 0.68 2 0 2 C0 1.34 0 0.68 0 0 Z " fill="#FFE7ED" transform="translate(67,48)"/>
<path d="M0 0 C0.33 0 0.66 0 1 0 C1.33 2.64 1.66 5.28 2 8 C2.99 8.33 3.98 8.66 5 9 C4.01 9.33 3.02 9.66 2 10 C0.4375 8.9375 0.4375 8.9375 -1 7 C-0.6875 3.3125 -0.6875 3.3125 0 0 Z " fill="#FBD0D8" transform="translate(29,60)"/>
<path d="M0 0 C0.33 0 0.66 0 1 0 C1 3.3 1 6.6 1 10 C-0.65 10 -2.3 10 -4 10 C-3.34 9.34 -2.68 8.68 -2 8 C-1.32707499 6.03309626 -1.32707499 6.03309626 -0.875 3.875 C-0.58625 2.59625 -0.2975 1.3175 0 0 Z " fill="#D9234A" transform="translate(90,36)"/>
<path d="M0 0 C1.4540625 0.0309375 1.4540625 0.0309375 2.9375 0.0625 C-1.8125 4.0625 -1.8125 4.0625 -4.0625 4.0625 C-5.0525 4.5575 -5.0525 4.5575 -6.0625 5.0625 C-3.64893617 0.07446809 -3.64893617 0.07446809 0 0 Z " fill="#FCDBE1" transform="translate(88.0625,45.9375)"/>
<path d="M0 0 C0.66 0 1.32 0 2 0 C1.45773019 3.79588866 -0.20127563 5.47211993 -3 8 C-3 6.68 -3 5.36 -3 4 C-2.34 4 -1.68 4 -1 4 C-0.67 2.68 -0.34 1.36 0 0 Z " fill="#D40E37" transform="translate(36,31)"/>
<path d="M0 0 C-0.66 2.97 -1.32 5.94 -2 9 C-2.33 9 -2.66 9 -3 9 C-3 7.02 -3 5.04 -3 3 C-3.66 2.67 -4.32 2.34 -5 2 C-2 0 -2 0 0 0 Z " fill="#D02448" transform="translate(42,50)"/>
</svg>
